<mxfile host="app.diagrams.net" agent="Mozilla/5.0 (Windows NT 10.0; Win64; x64) AppleWebKit/537.36 (KHTML, like Gecko) Chrome/140.0.0.0 Safari/537.36 Edg/140.0.0.0" version="26.0.16">
  <diagram id="C5RBs43oDa-KdzZeNtuy" name="Page-1">
    <mxGraphModel dx="2085" dy="791" grid="1" gridSize="10" guides="1" tooltips="1" connect="1" arrows="1" fold="1" page="1" pageScale="1" pageWidth="827" pageHeight="1169" math="0" shadow="0">
      <root>
        <mxCell id="WIyWlLk6GJQsqaUBKTNV-0" />
        <mxCell id="WIyWlLk6GJQsqaUBKTNV-1" parent="WIyWlLk6GJQsqaUBKTNV-0" />
        <mxCell id="XDBzuRyYUCM53Y4DAIIa-6" style="edgeStyle=orthogonalEdgeStyle;rounded=0;orthogonalLoop=1;jettySize=auto;html=1;exitX=0.5;exitY=1;exitDx=0;exitDy=0;entryX=0.5;entryY=0;entryDx=0;entryDy=0;" edge="1" parent="WIyWlLk6GJQsqaUBKTNV-1" source="XDBzuRyYUCM53Y4DAIIa-4" target="XDBzuRyYUCM53Y4DAIIa-7">
          <mxGeometry relative="1" as="geometry">
            <mxPoint x="193" y="100" as="targetPoint" />
          </mxGeometry>
        </mxCell>
        <mxCell id="XDBzuRyYUCM53Y4DAIIa-4" value="Main" style="rounded=1;whiteSpace=wrap;html=1;arcSize=50;" vertex="1" parent="WIyWlLk6GJQsqaUBKTNV-1">
          <mxGeometry x="133" y="10" width="120" height="40" as="geometry" />
        </mxCell>
        <mxCell id="XDBzuRyYUCM53Y4DAIIa-8" style="edgeStyle=orthogonalEdgeStyle;rounded=0;orthogonalLoop=1;jettySize=auto;html=1;exitX=0.5;exitY=1;exitDx=0;exitDy=0;" edge="1" parent="WIyWlLk6GJQsqaUBKTNV-1" source="XDBzuRyYUCM53Y4DAIIa-7" target="XDBzuRyYUCM53Y4DAIIa-9">
          <mxGeometry relative="1" as="geometry">
            <mxPoint x="193" y="210" as="targetPoint" />
          </mxGeometry>
        </mxCell>
        <mxCell id="XDBzuRyYUCM53Y4DAIIa-7" value="namaTerdaftar = &quot;Zeinal Abidin&quot;" style="rounded=0;whiteSpace=wrap;html=1;" vertex="1" parent="WIyWlLk6GJQsqaUBKTNV-1">
          <mxGeometry x="133" y="70" width="120" height="40" as="geometry" />
        </mxCell>
        <mxCell id="XDBzuRyYUCM53Y4DAIIa-10" style="edgeStyle=orthogonalEdgeStyle;rounded=0;orthogonalLoop=1;jettySize=auto;html=1;exitX=0.5;exitY=1;exitDx=0;exitDy=0;" edge="1" parent="WIyWlLk6GJQsqaUBKTNV-1" source="XDBzuRyYUCM53Y4DAIIa-9" target="XDBzuRyYUCM53Y4DAIIa-11">
          <mxGeometry relative="1" as="geometry">
            <mxPoint x="193.090909090909" y="310" as="targetPoint" />
          </mxGeometry>
        </mxCell>
        <mxCell id="XDBzuRyYUCM53Y4DAIIa-9" value="nimTerdaftar = 2509106075" style="rounded=0;whiteSpace=wrap;html=1;" vertex="1" parent="WIyWlLk6GJQsqaUBKTNV-1">
          <mxGeometry x="133" y="130" width="120" height="40" as="geometry" />
        </mxCell>
        <mxCell id="XDBzuRyYUCM53Y4DAIIa-12" style="edgeStyle=orthogonalEdgeStyle;rounded=0;orthogonalLoop=1;jettySize=auto;html=1;exitX=0.5;exitY=1;exitDx=0;exitDy=0;" edge="1" parent="WIyWlLk6GJQsqaUBKTNV-1" source="XDBzuRyYUCM53Y4DAIIa-11" target="XDBzuRyYUCM53Y4DAIIa-13">
          <mxGeometry relative="1" as="geometry">
            <mxPoint x="192" y="410" as="targetPoint" />
          </mxGeometry>
        </mxCell>
        <mxCell id="XDBzuRyYUCM53Y4DAIIa-11" value="ukt = 6000000" style="rounded=0;whiteSpace=wrap;html=1;" vertex="1" parent="WIyWlLk6GJQsqaUBKTNV-1">
          <mxGeometry x="132.5" y="190" width="120" height="40" as="geometry" />
        </mxCell>
        <mxCell id="XDBzuRyYUCM53Y4DAIIa-17" style="edgeStyle=orthogonalEdgeStyle;rounded=0;orthogonalLoop=1;jettySize=auto;html=1;exitX=0.5;exitY=1;exitDx=0;exitDy=0;entryX=0.5;entryY=0;entryDx=0;entryDy=0;" edge="1" parent="WIyWlLk6GJQsqaUBKTNV-1" source="XDBzuRyYUCM53Y4DAIIa-13" target="XDBzuRyYUCM53Y4DAIIa-18">
          <mxGeometry relative="1" as="geometry">
            <mxPoint x="193.28571428571445" y="520" as="targetPoint" />
          </mxGeometry>
        </mxCell>
        <mxCell id="XDBzuRyYUCM53Y4DAIIa-13" value="Input nama" style="shape=parallelogram;perimeter=parallelogramPerimeter;whiteSpace=wrap;html=1;fixedSize=1;" vertex="1" parent="WIyWlLk6GJQsqaUBKTNV-1">
          <mxGeometry x="133" y="250" width="120" height="40" as="geometry" />
        </mxCell>
        <mxCell id="XDBzuRyYUCM53Y4DAIIa-19" style="edgeStyle=orthogonalEdgeStyle;rounded=0;orthogonalLoop=1;jettySize=auto;html=1;exitX=0.5;exitY=1;exitDx=0;exitDy=0;" edge="1" parent="WIyWlLk6GJQsqaUBKTNV-1" source="XDBzuRyYUCM53Y4DAIIa-18" target="XDBzuRyYUCM53Y4DAIIa-20">
          <mxGeometry relative="1" as="geometry">
            <mxPoint x="193.28571428571445" y="440" as="targetPoint" />
          </mxGeometry>
        </mxCell>
        <mxCell id="XDBzuRyYUCM53Y4DAIIa-18" value="Input nim" style="shape=parallelogram;perimeter=parallelogramPerimeter;whiteSpace=wrap;html=1;fixedSize=1;" vertex="1" parent="WIyWlLk6GJQsqaUBKTNV-1">
          <mxGeometry x="132.5" y="310" width="120" height="40" as="geometry" />
        </mxCell>
        <mxCell id="XDBzuRyYUCM53Y4DAIIa-22" style="edgeStyle=orthogonalEdgeStyle;rounded=0;orthogonalLoop=1;jettySize=auto;html=1;exitX=0;exitY=0.5;exitDx=0;exitDy=0;entryX=0.436;entryY=-0.069;entryDx=0;entryDy=0;entryPerimeter=0;" edge="1" parent="WIyWlLk6GJQsqaUBKTNV-1" source="XDBzuRyYUCM53Y4DAIIa-20" target="XDBzuRyYUCM53Y4DAIIa-23">
          <mxGeometry relative="1" as="geometry">
            <mxPoint x="80" y="630" as="targetPoint" />
            <Array as="points">
              <mxPoint x="62" y="430" />
            </Array>
          </mxGeometry>
        </mxCell>
        <mxCell id="XDBzuRyYUCM53Y4DAIIa-28" style="edgeStyle=orthogonalEdgeStyle;rounded=0;orthogonalLoop=1;jettySize=auto;html=1;exitX=1;exitY=0.5;exitDx=0;exitDy=0;" edge="1" parent="WIyWlLk6GJQsqaUBKTNV-1" source="XDBzuRyYUCM53Y4DAIIa-20" target="XDBzuRyYUCM53Y4DAIIa-32">
          <mxGeometry relative="1" as="geometry">
            <mxPoint x="500" y="630" as="targetPoint" />
          </mxGeometry>
        </mxCell>
        <mxCell id="XDBzuRyYUCM53Y4DAIIa-20" value="nama == namaTerdaftar&amp;nbsp;&lt;div&gt;&amp;amp;&amp;amp; nim == nimTerdaftar&lt;/div&gt;" style="rhombus;whiteSpace=wrap;html=1;" vertex="1" parent="WIyWlLk6GJQsqaUBKTNV-1">
          <mxGeometry x="110.5" y="370" width="165" height="120" as="geometry" />
        </mxCell>
        <mxCell id="XDBzuRyYUCM53Y4DAIIa-94" style="edgeStyle=orthogonalEdgeStyle;rounded=0;orthogonalLoop=1;jettySize=auto;html=1;exitX=0.5;exitY=1;exitDx=0;exitDy=0;entryX=0;entryY=0.5;entryDx=0;entryDy=0;" edge="1" parent="WIyWlLk6GJQsqaUBKTNV-1" source="XDBzuRyYUCM53Y4DAIIa-23" target="XDBzuRyYUCM53Y4DAIIa-88">
          <mxGeometry relative="1" as="geometry" />
        </mxCell>
        <mxCell id="XDBzuRyYUCM53Y4DAIIa-23" value="Output &quot;Login&amp;nbsp;&lt;div&gt;Gagal&quot;&lt;/div&gt;" style="shape=parallelogram;perimeter=parallelogramPerimeter;whiteSpace=wrap;html=1;fixedSize=1;" vertex="1" parent="WIyWlLk6GJQsqaUBKTNV-1">
          <mxGeometry x="10" y="500" width="120" height="40" as="geometry" />
        </mxCell>
        <mxCell id="XDBzuRyYUCM53Y4DAIIa-25" value="False" style="text;html=1;align=center;verticalAlign=middle;whiteSpace=wrap;rounded=0;" vertex="1" parent="WIyWlLk6GJQsqaUBKTNV-1">
          <mxGeometry x="60" y="400" width="60" height="30" as="geometry" />
        </mxCell>
        <mxCell id="XDBzuRyYUCM53Y4DAIIa-30" value="True" style="text;html=1;align=center;verticalAlign=middle;whiteSpace=wrap;rounded=0;" vertex="1" parent="WIyWlLk6GJQsqaUBKTNV-1">
          <mxGeometry x="270" y="400" width="60" height="30" as="geometry" />
        </mxCell>
        <mxCell id="XDBzuRyYUCM53Y4DAIIa-35" style="edgeStyle=orthogonalEdgeStyle;rounded=0;orthogonalLoop=1;jettySize=auto;html=1;exitX=0.5;exitY=1;exitDx=0;exitDy=0;" edge="1" parent="WIyWlLk6GJQsqaUBKTNV-1" source="XDBzuRyYUCM53Y4DAIIa-32" target="XDBzuRyYUCM53Y4DAIIa-36">
          <mxGeometry relative="1" as="geometry">
            <mxPoint x="374.7272727272725" y="760" as="targetPoint" />
          </mxGeometry>
        </mxCell>
        <mxCell id="XDBzuRyYUCM53Y4DAIIa-32" value="Output &quot;Silahkan pilih opsi pembayaran UKT :&lt;div&gt;1. Lunas: Biaya administrasi 1%&lt;/div&gt;&lt;div&gt;2. Cicilan 2x: Biaya administrasi 5%&lt;/div&gt;&lt;div&gt;3. Cicilan 4x: Biaya administrasi 8%&lt;/div&gt;&lt;div&gt;4. Cicilan 6x: Biaya administrasi 12%&quot;&lt;/div&gt;" style="shape=parallelogram;perimeter=parallelogramPerimeter;whiteSpace=wrap;html=1;fixedSize=1;" vertex="1" parent="WIyWlLk6GJQsqaUBKTNV-1">
          <mxGeometry x="190" y="500" width="290" height="75" as="geometry" />
        </mxCell>
        <mxCell id="XDBzuRyYUCM53Y4DAIIa-37" style="edgeStyle=orthogonalEdgeStyle;rounded=0;orthogonalLoop=1;jettySize=auto;html=1;exitX=0.5;exitY=1;exitDx=0;exitDy=0;" edge="1" parent="WIyWlLk6GJQsqaUBKTNV-1" source="XDBzuRyYUCM53Y4DAIIa-36" target="XDBzuRyYUCM53Y4DAIIa-42">
          <mxGeometry relative="1" as="geometry">
            <mxPoint x="374.7272727272725" y="870" as="targetPoint" />
          </mxGeometry>
        </mxCell>
        <mxCell id="XDBzuRyYUCM53Y4DAIIa-36" value="Input opsiPembayaran" style="shape=parallelogram;perimeter=parallelogramPerimeter;whiteSpace=wrap;html=1;fixedSize=1;" vertex="1" parent="WIyWlLk6GJQsqaUBKTNV-1">
          <mxGeometry x="275.4972727272725" y="600" width="120" height="60" as="geometry" />
        </mxCell>
        <mxCell id="XDBzuRyYUCM53Y4DAIIa-43" style="edgeStyle=orthogonalEdgeStyle;rounded=0;orthogonalLoop=1;jettySize=auto;html=1;exitX=0;exitY=0.5;exitDx=0;exitDy=0;" edge="1" parent="WIyWlLk6GJQsqaUBKTNV-1" source="XDBzuRyYUCM53Y4DAIIa-42" target="XDBzuRyYUCM53Y4DAIIa-44">
          <mxGeometry relative="1" as="geometry">
            <mxPoint x="240" y="1000" as="targetPoint" />
          </mxGeometry>
        </mxCell>
        <mxCell id="XDBzuRyYUCM53Y4DAIIa-50" style="edgeStyle=orthogonalEdgeStyle;rounded=0;orthogonalLoop=1;jettySize=auto;html=1;exitX=1;exitY=0.5;exitDx=0;exitDy=0;" edge="1" parent="WIyWlLk6GJQsqaUBKTNV-1" source="XDBzuRyYUCM53Y4DAIIa-42" target="XDBzuRyYUCM53Y4DAIIa-54">
          <mxGeometry relative="1" as="geometry">
            <mxPoint x="500" y="800" as="targetPoint" />
          </mxGeometry>
        </mxCell>
        <mxCell id="XDBzuRyYUCM53Y4DAIIa-42" value="opsiPembayaran == 1" style="rhombus;whiteSpace=wrap;html=1;" vertex="1" parent="WIyWlLk6GJQsqaUBKTNV-1">
          <mxGeometry x="267.5" y="690" width="135" height="90" as="geometry" />
        </mxCell>
        <mxCell id="XDBzuRyYUCM53Y4DAIIa-47" style="edgeStyle=orthogonalEdgeStyle;rounded=0;orthogonalLoop=1;jettySize=auto;html=1;exitX=0.5;exitY=1;exitDx=0;exitDy=0;" edge="1" parent="WIyWlLk6GJQsqaUBKTNV-1" source="XDBzuRyYUCM53Y4DAIIa-44" target="XDBzuRyYUCM53Y4DAIIa-48">
          <mxGeometry relative="1" as="geometry">
            <mxPoint x="231.77272727272725" y="1060" as="targetPoint" />
          </mxGeometry>
        </mxCell>
        <mxCell id="XDBzuRyYUCM53Y4DAIIa-44" value="totalBayar = ukt + (ukt * 1/100)" style="rounded=0;whiteSpace=wrap;html=1;" vertex="1" parent="WIyWlLk6GJQsqaUBKTNV-1">
          <mxGeometry x="147.5" y="810" width="120" height="40" as="geometry" />
        </mxCell>
        <mxCell id="XDBzuRyYUCM53Y4DAIIa-45" value="True" style="text;html=1;align=center;verticalAlign=middle;whiteSpace=wrap;rounded=0;" vertex="1" parent="WIyWlLk6GJQsqaUBKTNV-1">
          <mxGeometry x="220" y="710" width="60" height="30" as="geometry" />
        </mxCell>
        <mxCell id="XDBzuRyYUCM53Y4DAIIa-89" style="edgeStyle=orthogonalEdgeStyle;rounded=0;orthogonalLoop=1;jettySize=auto;html=1;exitX=0.5;exitY=1;exitDx=0;exitDy=0;entryX=0.5;entryY=0;entryDx=0;entryDy=0;" edge="1" parent="WIyWlLk6GJQsqaUBKTNV-1" source="XDBzuRyYUCM53Y4DAIIa-48" target="XDBzuRyYUCM53Y4DAIIa-88">
          <mxGeometry relative="1" as="geometry">
            <mxPoint x="110" y="1360" as="targetPoint" />
            <Array as="points">
              <mxPoint x="208" y="1410" />
              <mxPoint x="208" y="1410" />
            </Array>
          </mxGeometry>
        </mxCell>
        <mxCell id="XDBzuRyYUCM53Y4DAIIa-48" value="Output &quot;===Rincian Pembayaran===&lt;div&gt;UKT = Rp {ukt}&lt;/div&gt;&lt;div&gt;Biaya administrasi = Rp {ukt * 1/100}&lt;/div&gt;&lt;div&gt;Total bayar anda = Rp (totalBayar}&quot;&lt;/div&gt;" style="shape=parallelogram;perimeter=parallelogramPerimeter;whiteSpace=wrap;html=1;fixedSize=1;" vertex="1" parent="WIyWlLk6GJQsqaUBKTNV-1">
          <mxGeometry x="90" y="880" width="235" height="60" as="geometry" />
        </mxCell>
        <mxCell id="XDBzuRyYUCM53Y4DAIIa-51" value="False" style="text;html=1;align=center;verticalAlign=middle;whiteSpace=wrap;rounded=0;" vertex="1" parent="WIyWlLk6GJQsqaUBKTNV-1">
          <mxGeometry x="414" y="710" width="60" height="30" as="geometry" />
        </mxCell>
        <mxCell id="XDBzuRyYUCM53Y4DAIIa-55" style="edgeStyle=orthogonalEdgeStyle;rounded=0;orthogonalLoop=1;jettySize=auto;html=1;exitX=1;exitY=1;exitDx=0;exitDy=0;entryX=0.5;entryY=0;entryDx=0;entryDy=0;" edge="1" parent="WIyWlLk6GJQsqaUBKTNV-1" source="XDBzuRyYUCM53Y4DAIIa-59" target="XDBzuRyYUCM53Y4DAIIa-57">
          <mxGeometry relative="1" as="geometry">
            <mxPoint x="512.5" y="880" as="targetPoint" />
            <mxPoint x="604.5" y="829.9999999999998" as="sourcePoint" />
            <Array as="points">
              <mxPoint x="477.5" y="830" />
            </Array>
          </mxGeometry>
        </mxCell>
        <mxCell id="XDBzuRyYUCM53Y4DAIIa-62" style="edgeStyle=orthogonalEdgeStyle;rounded=0;orthogonalLoop=1;jettySize=auto;html=1;exitX=1;exitY=0.5;exitDx=0;exitDy=0;" edge="1" parent="WIyWlLk6GJQsqaUBKTNV-1" source="XDBzuRyYUCM53Y4DAIIa-54" target="XDBzuRyYUCM53Y4DAIIa-65">
          <mxGeometry relative="1" as="geometry">
            <mxPoint x="874.5" y="900" as="targetPoint" />
          </mxGeometry>
        </mxCell>
        <mxCell id="XDBzuRyYUCM53Y4DAIIa-54" value="opsiPembayaran == 2" style="rhombus;whiteSpace=wrap;html=1;" vertex="1" parent="WIyWlLk6GJQsqaUBKTNV-1">
          <mxGeometry x="634.5" y="790" width="150" height="80" as="geometry" />
        </mxCell>
        <mxCell id="XDBzuRyYUCM53Y4DAIIa-56" style="edgeStyle=orthogonalEdgeStyle;rounded=0;orthogonalLoop=1;jettySize=auto;html=1;exitX=0.5;exitY=1;exitDx=0;exitDy=0;" edge="1" source="XDBzuRyYUCM53Y4DAIIa-57" parent="WIyWlLk6GJQsqaUBKTNV-1">
          <mxGeometry relative="1" as="geometry">
            <mxPoint x="477.5" y="970" as="targetPoint" />
          </mxGeometry>
        </mxCell>
        <mxCell id="XDBzuRyYUCM53Y4DAIIa-57" value="totalBayar = ukt + (ukt * 5/100)" style="rounded=0;whiteSpace=wrap;html=1;" vertex="1" parent="WIyWlLk6GJQsqaUBKTNV-1">
          <mxGeometry x="417.5" y="900" width="120" height="40" as="geometry" />
        </mxCell>
        <mxCell id="XDBzuRyYUCM53Y4DAIIa-90" style="edgeStyle=orthogonalEdgeStyle;rounded=0;orthogonalLoop=1;jettySize=auto;html=1;exitX=0.5;exitY=1;exitDx=0;exitDy=0;entryX=1;entryY=0.5;entryDx=0;entryDy=0;" edge="1" parent="WIyWlLk6GJQsqaUBKTNV-1" source="XDBzuRyYUCM53Y4DAIIa-58" target="XDBzuRyYUCM53Y4DAIIa-88">
          <mxGeometry relative="1" as="geometry">
            <mxPoint x="477.23076923076906" y="1490" as="targetPoint" />
          </mxGeometry>
        </mxCell>
        <mxCell id="XDBzuRyYUCM53Y4DAIIa-58" value="Output &quot;===Rincian Pembayaran===&lt;div&gt;UKT = Rp {ukt}&lt;/div&gt;&lt;div&gt;Biaya administrasi = Rp {ukt * 5/100}&lt;/div&gt;&lt;div&gt;Total bayar anda = Rp (totalBayar}&lt;/div&gt;&lt;div&gt;Cicilan yang harus anda bayar 2x = Rp {cicilan}&quot;&lt;/div&gt;" style="shape=parallelogram;perimeter=parallelogramPerimeter;whiteSpace=wrap;html=1;fixedSize=1;" vertex="1" parent="WIyWlLk6GJQsqaUBKTNV-1">
          <mxGeometry x="330" y="1040" width="294.5" height="80" as="geometry" />
        </mxCell>
        <mxCell id="XDBzuRyYUCM53Y4DAIIa-59" value="True" style="text;html=1;align=center;verticalAlign=middle;whiteSpace=wrap;rounded=0;" vertex="1" parent="WIyWlLk6GJQsqaUBKTNV-1">
          <mxGeometry x="577" y="800" width="60" height="30" as="geometry" />
        </mxCell>
        <mxCell id="XDBzuRyYUCM53Y4DAIIa-61" style="edgeStyle=orthogonalEdgeStyle;rounded=0;orthogonalLoop=1;jettySize=auto;html=1;exitX=0.5;exitY=1;exitDx=0;exitDy=0;" edge="1" parent="WIyWlLk6GJQsqaUBKTNV-1" source="XDBzuRyYUCM53Y4DAIIa-60">
          <mxGeometry relative="1" as="geometry">
            <mxPoint x="477.8529411764706" y="1040" as="targetPoint" />
          </mxGeometry>
        </mxCell>
        <mxCell id="XDBzuRyYUCM53Y4DAIIa-60" value="cicilan = totalBayar / 2" style="rounded=0;whiteSpace=wrap;html=1;" vertex="1" parent="WIyWlLk6GJQsqaUBKTNV-1">
          <mxGeometry x="417.5" y="970" width="120" height="40" as="geometry" />
        </mxCell>
        <mxCell id="XDBzuRyYUCM53Y4DAIIa-67" style="edgeStyle=orthogonalEdgeStyle;rounded=0;orthogonalLoop=1;jettySize=auto;html=1;exitX=0;exitY=0.5;exitDx=0;exitDy=0;entryX=0.5;entryY=0;entryDx=0;entryDy=0;" edge="1" parent="WIyWlLk6GJQsqaUBKTNV-1" target="XDBzuRyYUCM53Y4DAIIa-70">
          <mxGeometry relative="1" as="geometry">
            <mxPoint x="894.5" y="1000" as="targetPoint" />
            <mxPoint x="954.5" y="939.9999999999998" as="sourcePoint" />
          </mxGeometry>
        </mxCell>
        <mxCell id="XDBzuRyYUCM53Y4DAIIa-74" style="edgeStyle=orthogonalEdgeStyle;rounded=0;orthogonalLoop=1;jettySize=auto;html=1;exitX=1;exitY=0.5;exitDx=0;exitDy=0;entryX=0.5;entryY=0;entryDx=0;entryDy=0;" edge="1" parent="WIyWlLk6GJQsqaUBKTNV-1" source="XDBzuRyYUCM53Y4DAIIa-65" target="XDBzuRyYUCM53Y4DAIIa-77">
          <mxGeometry relative="1" as="geometry">
            <mxPoint x="1290.5" y="1010" as="targetPoint" />
            <Array as="points">
              <mxPoint x="1356.5" y="940" />
            </Array>
          </mxGeometry>
        </mxCell>
        <mxCell id="XDBzuRyYUCM53Y4DAIIa-65" value="opsiPembayaran == 3" style="rhombus;whiteSpace=wrap;html=1;" vertex="1" parent="WIyWlLk6GJQsqaUBKTNV-1">
          <mxGeometry x="960.5" y="900" width="140" height="80" as="geometry" />
        </mxCell>
        <mxCell id="XDBzuRyYUCM53Y4DAIIa-66" value="False" style="text;html=1;align=center;verticalAlign=middle;whiteSpace=wrap;rounded=0;" vertex="1" parent="WIyWlLk6GJQsqaUBKTNV-1">
          <mxGeometry x="804.5" y="800" width="60" height="30" as="geometry" />
        </mxCell>
        <mxCell id="XDBzuRyYUCM53Y4DAIIa-68" value="True" style="text;html=1;align=center;verticalAlign=middle;whiteSpace=wrap;rounded=0;" vertex="1" parent="WIyWlLk6GJQsqaUBKTNV-1">
          <mxGeometry x="910.5" y="910" width="60" height="30" as="geometry" />
        </mxCell>
        <mxCell id="XDBzuRyYUCM53Y4DAIIa-69" style="edgeStyle=orthogonalEdgeStyle;rounded=0;orthogonalLoop=1;jettySize=auto;html=1;exitX=0.5;exitY=1;exitDx=0;exitDy=0;" edge="1" source="XDBzuRyYUCM53Y4DAIIa-70" parent="WIyWlLk6GJQsqaUBKTNV-1">
          <mxGeometry relative="1" as="geometry">
            <mxPoint x="852" y="1070" as="targetPoint" />
          </mxGeometry>
        </mxCell>
        <mxCell id="XDBzuRyYUCM53Y4DAIIa-70" value="totalBayar = ukt + (ukt * 8/100)" style="rounded=0;whiteSpace=wrap;html=1;" vertex="1" parent="WIyWlLk6GJQsqaUBKTNV-1">
          <mxGeometry x="792" y="1000" width="120" height="40" as="geometry" />
        </mxCell>
        <mxCell id="XDBzuRyYUCM53Y4DAIIa-91" style="edgeStyle=orthogonalEdgeStyle;rounded=0;orthogonalLoop=1;jettySize=auto;html=1;exitX=0.5;exitY=1;exitDx=0;exitDy=0;entryX=1;entryY=0.5;entryDx=0;entryDy=0;" edge="1" parent="WIyWlLk6GJQsqaUBKTNV-1" source="XDBzuRyYUCM53Y4DAIIa-71" target="XDBzuRyYUCM53Y4DAIIa-88">
          <mxGeometry relative="1" as="geometry">
            <mxPoint x="850" y="1510" as="targetPoint" />
          </mxGeometry>
        </mxCell>
        <mxCell id="XDBzuRyYUCM53Y4DAIIa-71" value="Output &quot;===Rincian Pembayaran===&lt;div&gt;UKT = Rp {ukt}&lt;/div&gt;&lt;div&gt;Biaya administrasi = Rp {ukt * 8/100}&lt;/div&gt;&lt;div&gt;Total bayar anda = Rp (totalBayar}&lt;/div&gt;&lt;div&gt;Cicilan yang harus anda bayar 4x = Rp {cicilan}&quot;&lt;/div&gt;" style="shape=parallelogram;perimeter=parallelogramPerimeter;whiteSpace=wrap;html=1;fixedSize=1;" vertex="1" parent="WIyWlLk6GJQsqaUBKTNV-1">
          <mxGeometry x="704.5" y="1140" width="294.5" height="80" as="geometry" />
        </mxCell>
        <mxCell id="XDBzuRyYUCM53Y4DAIIa-72" style="edgeStyle=orthogonalEdgeStyle;rounded=0;orthogonalLoop=1;jettySize=auto;html=1;exitX=0.5;exitY=1;exitDx=0;exitDy=0;" edge="1" source="XDBzuRyYUCM53Y4DAIIa-73" parent="WIyWlLk6GJQsqaUBKTNV-1">
          <mxGeometry relative="1" as="geometry">
            <mxPoint x="852.3529411764706" y="1140" as="targetPoint" />
          </mxGeometry>
        </mxCell>
        <mxCell id="XDBzuRyYUCM53Y4DAIIa-73" value="cicilan = totalBayar / 4" style="rounded=0;whiteSpace=wrap;html=1;" vertex="1" parent="WIyWlLk6GJQsqaUBKTNV-1">
          <mxGeometry x="792" y="1070" width="120" height="40" as="geometry" />
        </mxCell>
        <mxCell id="XDBzuRyYUCM53Y4DAIIa-75" value="False" style="text;html=1;align=center;verticalAlign=middle;whiteSpace=wrap;rounded=0;" vertex="1" parent="WIyWlLk6GJQsqaUBKTNV-1">
          <mxGeometry x="1130.5" y="910" width="60" height="30" as="geometry" />
        </mxCell>
        <mxCell id="XDBzuRyYUCM53Y4DAIIa-76" style="edgeStyle=orthogonalEdgeStyle;rounded=0;orthogonalLoop=1;jettySize=auto;html=1;exitX=0;exitY=0.5;exitDx=0;exitDy=0;entryX=0.5;entryY=0;entryDx=0;entryDy=0;" edge="1" target="XDBzuRyYUCM53Y4DAIIa-80" parent="WIyWlLk6GJQsqaUBKTNV-1" source="XDBzuRyYUCM53Y4DAIIa-77">
          <mxGeometry relative="1" as="geometry">
            <mxPoint x="1220.5" y="1100" as="targetPoint" />
            <mxPoint x="1280.5" y="1039.9999999999998" as="sourcePoint" />
          </mxGeometry>
        </mxCell>
        <mxCell id="XDBzuRyYUCM53Y4DAIIa-84" style="edgeStyle=orthogonalEdgeStyle;rounded=0;orthogonalLoop=1;jettySize=auto;html=1;exitX=1;exitY=0.5;exitDx=0;exitDy=0;" edge="1" parent="WIyWlLk6GJQsqaUBKTNV-1" source="XDBzuRyYUCM53Y4DAIIa-77" target="XDBzuRyYUCM53Y4DAIIa-86">
          <mxGeometry relative="1" as="geometry">
            <mxPoint x="1564.5" y="1099.9999999999998" as="targetPoint" />
          </mxGeometry>
        </mxCell>
        <mxCell id="XDBzuRyYUCM53Y4DAIIa-77" value="opsiPembayaran == 4" style="rhombus;whiteSpace=wrap;html=1;" vertex="1" parent="WIyWlLk6GJQsqaUBKTNV-1">
          <mxGeometry x="1286.5" y="1000" width="140" height="80" as="geometry" />
        </mxCell>
        <mxCell id="XDBzuRyYUCM53Y4DAIIa-78" value="True" style="text;html=1;align=center;verticalAlign=middle;whiteSpace=wrap;rounded=0;" vertex="1" parent="WIyWlLk6GJQsqaUBKTNV-1">
          <mxGeometry x="1236.5" y="1010" width="60" height="30" as="geometry" />
        </mxCell>
        <mxCell id="XDBzuRyYUCM53Y4DAIIa-79" style="edgeStyle=orthogonalEdgeStyle;rounded=0;orthogonalLoop=1;jettySize=auto;html=1;exitX=0.5;exitY=1;exitDx=0;exitDy=0;" edge="1" source="XDBzuRyYUCM53Y4DAIIa-80" parent="WIyWlLk6GJQsqaUBKTNV-1">
          <mxGeometry relative="1" as="geometry">
            <mxPoint x="1178" y="1170" as="targetPoint" />
          </mxGeometry>
        </mxCell>
        <mxCell id="XDBzuRyYUCM53Y4DAIIa-80" value="totalBayar = ukt + (ukt * 12/100)" style="rounded=0;whiteSpace=wrap;html=1;" vertex="1" parent="WIyWlLk6GJQsqaUBKTNV-1">
          <mxGeometry x="1118" y="1100" width="120" height="40" as="geometry" />
        </mxCell>
        <mxCell id="XDBzuRyYUCM53Y4DAIIa-92" style="edgeStyle=orthogonalEdgeStyle;rounded=0;orthogonalLoop=1;jettySize=auto;html=1;exitX=0.5;exitY=1;exitDx=0;exitDy=0;entryX=1;entryY=0.5;entryDx=0;entryDy=0;" edge="1" parent="WIyWlLk6GJQsqaUBKTNV-1" source="XDBzuRyYUCM53Y4DAIIa-81" target="XDBzuRyYUCM53Y4DAIIa-88">
          <mxGeometry relative="1" as="geometry">
            <mxPoint x="1177.230769230769" y="1500" as="targetPoint" />
          </mxGeometry>
        </mxCell>
        <mxCell id="XDBzuRyYUCM53Y4DAIIa-81" value="Output &quot;===Rincian Pembayaran===&lt;div&gt;UKT = Rp {ukt}&lt;/div&gt;&lt;div&gt;Biaya administrasi = Rp {ukt * 8/100}&lt;/div&gt;&lt;div&gt;Total bayar anda = Rp (totalBayar}&lt;/div&gt;&lt;div&gt;Cicilan yang harus anda bayar 6x = Rp {cicilan}&quot;&lt;/div&gt;" style="shape=parallelogram;perimeter=parallelogramPerimeter;whiteSpace=wrap;html=1;fixedSize=1;" vertex="1" parent="WIyWlLk6GJQsqaUBKTNV-1">
          <mxGeometry x="1030.5" y="1240" width="294.5" height="80" as="geometry" />
        </mxCell>
        <mxCell id="XDBzuRyYUCM53Y4DAIIa-82" style="edgeStyle=orthogonalEdgeStyle;rounded=0;orthogonalLoop=1;jettySize=auto;html=1;exitX=0.5;exitY=1;exitDx=0;exitDy=0;" edge="1" source="XDBzuRyYUCM53Y4DAIIa-83" parent="WIyWlLk6GJQsqaUBKTNV-1">
          <mxGeometry relative="1" as="geometry">
            <mxPoint x="1178.3529411764707" y="1240" as="targetPoint" />
          </mxGeometry>
        </mxCell>
        <mxCell id="XDBzuRyYUCM53Y4DAIIa-83" value="cicilan = totalBayar / 6" style="rounded=0;whiteSpace=wrap;html=1;" vertex="1" parent="WIyWlLk6GJQsqaUBKTNV-1">
          <mxGeometry x="1118" y="1170" width="120" height="40" as="geometry" />
        </mxCell>
        <mxCell id="XDBzuRyYUCM53Y4DAIIa-93" style="edgeStyle=orthogonalEdgeStyle;rounded=0;orthogonalLoop=1;jettySize=auto;html=1;exitX=0.5;exitY=1;exitDx=0;exitDy=0;entryX=1;entryY=0.5;entryDx=0;entryDy=0;" edge="1" parent="WIyWlLk6GJQsqaUBKTNV-1" source="XDBzuRyYUCM53Y4DAIIa-86" target="XDBzuRyYUCM53Y4DAIIa-88">
          <mxGeometry relative="1" as="geometry">
            <mxPoint x="1524.9230769230771" y="1510" as="targetPoint" />
          </mxGeometry>
        </mxCell>
        <mxCell id="XDBzuRyYUCM53Y4DAIIa-86" value="Output &quot;Anda tidak memilih angka 1-4&quot;" style="shape=parallelogram;perimeter=parallelogramPerimeter;whiteSpace=wrap;html=1;fixedSize=1;" vertex="1" parent="WIyWlLk6GJQsqaUBKTNV-1">
          <mxGeometry x="1454.5" y="1090" width="140" height="60" as="geometry" />
        </mxCell>
        <mxCell id="XDBzuRyYUCM53Y4DAIIa-87" value="False" style="text;html=1;align=center;verticalAlign=middle;whiteSpace=wrap;rounded=0;" vertex="1" parent="WIyWlLk6GJQsqaUBKTNV-1">
          <mxGeometry x="1454.5" y="1010" width="60" height="30" as="geometry" />
        </mxCell>
        <mxCell id="XDBzuRyYUCM53Y4DAIIa-88" value="End" style="rounded=1;whiteSpace=wrap;html=1;arcSize=50;" vertex="1" parent="WIyWlLk6GJQsqaUBKTNV-1">
          <mxGeometry x="147.5" y="1480" width="120" height="40" as="geometry" />
        </mxCell>
      </root>
    </mxGraphModel>
  </diagram>
</mxfile>
